<svg width="256" height="256" viewBox="0 0 256 256" fill="none" xmlns="http://www.w3.org/2000/svg">
<rect width="256" height="256" fill="#262626"/>
<path d="M198.202 120.255H168.214L130.434 152.341L162.216 152.545L198.202 120.255Z" fill="#F6F6F6"/>
<path d="M107.107 134.293L124.27 121.5L162.204 152.446H130.764L107.107 134.293Z" fill="url(#paint0_linear_347_80)"/>
<path d="M48 120.043H80.4674L117.768 151.286L86.9608 152.446L48 120.043Z" fill="url(#paint1_linear_347_80)"/>
<g filter="url(#filter0_dd_347_80)">
<path d="M152.184 120.255H122.291L86.9474 152.442H116.313L152.184 120.255Z" fill="#F6F6F6"/>
</g>
<g filter="url(#filter1_d_347_80)">
<path d="M195.979 130.176C202.974 130.176 208.645 124.505 208.645 117.51C208.645 110.515 202.974 104.844 195.979 104.844C188.984 104.844 183.313 110.515 183.313 117.51C183.313 124.505 188.984 130.176 195.979 130.176Z" fill="#F6F6F6"/>
</g>
<path d="M196.125 112.29C197.26 112.29 198.19 112.537 198.915 113.03C199.65 113.523 200.018 114.253 200.018 115.22V115.387H197.339V115.331C197.339 115.062 197.241 114.843 197.046 114.676C196.86 114.499 196.572 114.411 196.181 114.411C195.8 114.411 195.511 114.467 195.316 114.578C195.121 114.68 195.023 114.82 195.023 114.997C195.023 115.211 195.135 115.383 195.358 115.513C195.591 115.634 195.925 115.741 196.362 115.834L197.604 116.113C199.334 116.503 200.199 117.401 200.199 118.805C200.199 119.949 199.822 120.791 199.069 121.33C198.316 121.87 197.274 122.14 195.944 122.14C195.209 122.14 194.53 122.028 193.907 121.805C193.293 121.581 192.796 121.242 192.414 120.786C192.042 120.321 191.856 119.749 191.856 119.07V118.903C191.856 118.829 191.861 118.773 191.87 118.735H194.577C194.567 118.763 194.563 118.819 194.563 118.903C194.563 119.191 194.66 119.428 194.856 119.614C195.06 119.8 195.395 119.893 195.86 119.893C196.372 119.893 196.721 119.842 196.907 119.74C197.093 119.628 197.186 119.48 197.186 119.294C197.186 119.07 197.055 118.903 196.795 118.791C196.535 118.67 196.125 118.549 195.567 118.429C194.86 118.28 194.27 118.117 193.796 117.94C193.33 117.754 192.926 117.457 192.582 117.047C192.238 116.629 192.066 116.057 192.066 115.331C192.066 114.68 192.242 114.127 192.596 113.671C192.958 113.216 193.447 112.871 194.061 112.639C194.674 112.406 195.363 112.29 196.125 112.29Z" fill="#141414"/>
<defs>
<filter id="filter0_dd_347_80" x="68.9474" y="101.255" width="97.2368" height="65.1876" filterUnits="userSpaceOnUse" color-interpolation-filters="sRGB">
<feFlood flood-opacity="0" result="BackgroundImageFix"/>
<feColorMatrix in="SourceAlpha" type="matrix" values="0 0 0 0 0 0 0 0 0 0 0 0 0 0 0 0 0 0 127 0" result="hardAlpha"/>
<feOffset dx="4" dy="4"/>
<feGaussianBlur stdDeviation="5"/>
<feColorMatrix type="matrix" values="0 0 0 0 0.158333 0 0 0 0 0.158333 0 0 0 0 0.158333 0 0 0 0.25 0"/>
<feBlend mode="normal" in2="BackgroundImageFix" result="effect1_dropShadow_347_80"/>
<feColorMatrix in="SourceAlpha" type="matrix" values="0 0 0 0 0 0 0 0 0 0 0 0 0 0 0 0 0 0 127 0" result="hardAlpha"/>
<feOffset dx="-3" dy="-4"/>
<feGaussianBlur stdDeviation="7.5"/>
<feColorMatrix type="matrix" values="0 0 0 0 0 0 0 0 0 0 0 0 0 0 0 0 0 0 0.25 0"/>
<feBlend mode="normal" in2="effect1_dropShadow_347_80" result="effect2_dropShadow_347_80"/>
<feBlend mode="normal" in="SourceGraphic" in2="effect2_dropShadow_347_80" result="shape"/>
</filter>
<filter id="filter1_d_347_80" x="179.313" y="104.844" width="33.3317" height="33.3317" filterUnits="userSpaceOnUse" color-interpolation-filters="sRGB">
<feFlood flood-opacity="0" result="BackgroundImageFix"/>
<feColorMatrix in="SourceAlpha" type="matrix" values="0 0 0 0 0 0 0 0 0 0 0 0 0 0 0 0 0 0 127 0" result="hardAlpha"/>
<feOffset dy="4"/>
<feGaussianBlur stdDeviation="2"/>
<feColorMatrix type="matrix" values="0 0 0 0 0 0 0 0 0 0 0 0 0 0 0 0 0 0 0.25 0"/>
<feBlend mode="normal" in2="BackgroundImageFix" result="effect1_dropShadow_347_80"/>
<feBlend mode="normal" in="SourceGraphic" in2="effect1_dropShadow_347_80" result="shape"/>
</filter>
<linearGradient id="paint0_linear_347_80" x1="107.107" y1="136.245" x2="162.204" y2="136.245" gradientUnits="userSpaceOnUse">
<stop stop-color="#ECE9E6"/>
<stop offset="1" stop-color="white"/>
</linearGradient>
<linearGradient id="paint1_linear_347_80" x1="48" y1="136.245" x2="117.768" y2="136.245" gradientUnits="userSpaceOnUse">
<stop stop-color="#ECE9E6"/>
<stop offset="1" stop-color="white"/>
</linearGradient>
</defs>
</svg>
